<?xml version="1.0" encoding="UTF-8"?>
<svg width="100pt" height="100pt" version="1.1" viewBox="0 0 100 100" xmlns="http://www.w3.org/2000/svg">
 <path d="m50 2.5c-26.191 0-47.5 21.309-47.5 47.5s21.309 47.5 47.5 47.5 47.5-21.309 47.5-47.5-21.309-47.5-47.5-47.5zm0 90c-10.633 0-20.363-3.9219-27.824-10.398 0.12891-0.066406 0.25781-0.12891 0.38281-0.1875l16.559-7.4102c0.64844-0.28906 1.1406-0.84375 1.3594-1.5195l0.91016-2.8438c2.6797 1.5547 5.5781 2.4492 8.6133 2.4492s5.9336-0.89453 8.6094-2.4453l0.91016 2.8438c0.21875 0.67578 0.71094 1.2266 1.3594 1.5195l16.516 7.3906c0.14453 0.066406 0.28516 0.13672 0.42969 0.21094-7.4609 6.4688-17.195 10.391-27.824 10.391zm-19.27-52.012c0-11.289 8.6445-20.473 19.27-20.473s19.27 9.1836 19.27 20.473c0 11.945-9.0742 27.098-19.27 27.098-10.195 0.003906-19.27-15.152-19.27-27.098zm50.809 37.969c-0.67187-0.40625-1.3594-0.77734-2.0586-1.1094l-15.539-6.9531-1.0938-3.4141c6.8711-6.3555 11.426-17.059 11.426-26.488 0-14.047-10.887-25.473-24.27-25.473-13.387 0-24.273 11.426-24.273 25.469 0 9.4297 4.5547 20.133 11.426 26.488l-1.0938 3.4141-15.586 6.9766c-0.67578 0.32031-1.3477 0.68359-2.0156 1.0859-6.8086-7.5352-10.961-17.52-10.961-28.453 0-23.434 19.066-42.5 42.5-42.5s42.5 19.066 42.5 42.5c0 10.934-4.1523 20.918-10.961 28.457z" fill="#767676"/>
</svg>
