<?xml version="1.0" encoding="utf-8"?>
<!-- Generator: Adobe Illustrator 26.0.0, SVG Export Plug-In . SVG Version: 6.00 Build 0)  -->
<svg version="1.1" id="Capa_1" xmlns="http://www.w3.org/2000/svg" xmlns:xlink="http://www.w3.org/1999/xlink" x="0px" y="0px"
	 viewBox="0 0 24.5 24.5" style="enable-background:new 0 0 24.5 24.5;" xml:space="preserve">
<style type="text/css">
	.st0{fill:#767676;}
</style>
<path class="st0" d="M18,12.5c-0.8,0-1.5-0.7-1.5-1.5s0.7-1.5,1.5-1.5s1.5,0.7,1.5,1.5S18.8,12.5,18,12.5 M12,12.5
	c-0.8,0-1.5-0.7-1.5-1.5c0-0.8,0.7-1.5,1.5-1.5s1.5,0.7,1.5,1.5C13.5,11.8,12.8,12.5,12,12.5 M6,12.5c-0.8,0-1.5-0.7-1.5-1.5
	S5.2,9.5,6,9.5s1.5,0.7,1.5,1.5S6.8,12.5,6,12.5 M12,0C5.9,0,1,4.9,1,11c0,2.7,0.9,5.1,2.5,7L2,24l5.3-3c1.5,0.7,3.1,1,4.7,1
	c6.1,0,11-4.9,11-11S18.1,0,12,0"/>
</svg>
